<?xml version="1.0"?>
<svg 
xmlns="http://www.w3.org/2000/svg" 
viewBox="0 0 64 64" 
width="512" 
height="512"><g 
id="application"
>
<path 
d="M30,18h4a1,1,0,0,0,1-1V13a1,1,0,0,0-1-1H30a1,1,0,0,0-1,1v4A1,1,0,0,0,30,18Zm1-4h2v2H31Z"
/>
<path 
d="M38,18h4a1,1,0,0,0,1-1V13a1,1,0,0,0-1-1H38a1,1,0,0,0-1,1v4A1,1,0,0,0,38,18Zm1-4h2v2H39Z"
/>
<path 
d="M46,18h4a1,1,0,0,0,1-1V13a1,1,0,0,0-1-1H46a1,1,0,0,0-1,1v4A1,1,0,0,0,46,18Zm1-4h2v2H47Z"/>
<path 
d="M30,25h4a1,1,0,0,0,1-1V20a1,1,0,0,0-1-1H30a1,1,0,0,0-1,1v4A1,1,0,0,0,30,25Zm1-4h2v2H31Z"
/>
<path 
d="M38,25h4a1,1,0,0,0,1-1V20a1,1,0,0,0-1-1H38a1,1,0,0,0-1,1v4A1,1,0,0,0,38,25Zm1-4h2v2H39Z"
/>
<path 
d="M46,25h4a1,1,0,0,0,1-1V20a1,1,0,0,0-1-1H46a1,1,0,0,0-1,1v4A1,1,0,0,0,46,25Zm1-4h2v2H47Z"
/>
<path 
d="M30,32h4a1,1,0,0,0,1-1V27a1,1,0,0,0-1-1H30a1,1,0,0,0-1,1v4A1,1,0,0,0,30,32Zm1-4h2v2H31Z"
/>
<path 
d="M38,32h4a1,1,0,0,0,1-1V27a1,1,0,0,0-1-1H38a1,1,0,0,0-1,1v4A1,1,0,0,0,38,32Zm1-4h2v2H39Z"
/>
<path 
d="M46,32h4a1,1,0,0,0,1-1V27a1,1,0,0,0-1-1H46a1,1,0,0,0-1,1v4A1,1,0,0,0,46,32Zm1-4h2v2H47Z"
/>
<path 
d="M30,39h4a1,1,0,0,0,1-1V34a1,1,0,0,0-1-1H30a1,1,0,0,0-1,1v4A1,1,0,0,0,30,39Zm1-4h2v2H31Z"
/>
<path 
d="M14,18h4a1,1,0,0,0,1-1V13a1,1,0,0,0-1-1H14a1,1,0,0,0-1,1v4A1,1,0,0,0,14,18Zm1-4h2v2H15Z"
/>
<path 
d="M22,18h4a1,1,0,0,0,1-1V13a1,1,0,0,0-1-1H22a1,1,0,0,0-1,1v4A1,1,0,0,0,22,18Zm1-4h2v2H23Z"
/>
<path 
d="M14,25h4a1,1,0,0,0,1-1V20a1,1,0,0,0-1-1H14a1,1,0,0,0-1,1v4A1,1,0,0,0,14,25Zm1-4h2v2H15Z"
/>
<path 
d="M22,25h4a1,1,0,0,0,1-1V20a1,1,0,0,0-1-1H22a1,1,0,0,0-1,1v4A1,1,0,0,0,22,25Zm1-4h2v2H23Z"
/>
<path 
d="M14,32h4a1,1,0,0,0,1-1V27a1,1,0,0,0-1-1H14a1,1,0,0,0-1,1v4A1,1,0,0,0,14,32Zm1-4h2v2H15Z"
/>
<path 
d="M22,32h4a1,1,0,0,0,1-1V27a1,1,0,0,0-1-1H22a1,1,0,0,0-1,1v4A1,1,0,0,0,22,32Zm1-4h2v2H23Z"
/>
<rect 
x="30" 
y="51" 
width="4" 
height="2"
/>
<path 
d="M60.147,36.752A3,3,0,0,0,57.16,34H56V10a3,3,0,0,0-3-3H11a3,3,0,0,0-3,3V34H6.84a3,3,0,0,0-2.986,2.747l-1.67,20A3,3,0,0,0,5.17,60H58.83a3,3,0,0,0,2.986-3.253ZM9.079,46.285A2.976,2.976,0,0,0,11,47H53a2.976,2.976,0,0,0,1.921-.715l.553,6.63A1,1,0,0,1,54.48,54H9.52a1,1,0,0,1-.994-1.087ZM10,10a1,1,0,0,1,1-1H53a1,1,0,0,1,1,1V44a1,1,0,0,1-1,1H11a1,1,0,0,1-1-1ZM59.564,57.678A.983.983,0,0,1,58.83,58H5.17a1,1,0,0,1-.993-1.087l1.67-20A1,1,0,0,1,6.84,36H8v3.385a2.849,2.849,0,0,0-.467,1.362l-1,12A3,3,0,0,0,9.52,56H54.48a3,3,0,0,0,2.987-3.253l-1-11.987A2.872,2.872,0,0,0,56,39.385V36h1.16a1,1,0,0,1,.993.913l1.67,20A.985.985,0,0,1,59.564,57.678Z"
/>
<path 
d="M14,39h4a1,1,0,0,0,1-1V34a1,1,0,0,0-1-1H14a1,1,0,0,0-1,1v4A1,1,0,0,0,14,39Zm1-4h2v2H15Z"
/>
<path 
d="M22,39h4a1,1,0,0,0,1-1V34a1,1,0,0,0-1-1H22a1,1,0,0,0-1,1v4A1,1,0,0,0,22,39Zm1-4h2v2H23Z"
/>
<rect 
x="25" 
y="41" 
width="14" 
height="2"
/>
<rect 
x="22" 
y="41" 
width="2" 
height="2"
/>
<rect 
x="40" 
y="41" 
width="2" 
height="2"
/>
</g>
</svg>
